<svg width="128" height="128" xmlns="http://www.w3.org/2000/svg">

 <g>
  <title>background</title>
  <rect fill="none" id="canvas_background" height="402" width="582" y="-1" x="-1"/>
 </g>
 <g>
  <title>Layer 1</title>
  <path fill="#ffffff" id="svg_1" d="m97.351,87.003c0,-8.101 -2.45,-14.479 -7.351,-19.13c-4.898,-4.651 -12.288,-8.58 -22.17,-11.784c-5.612,-2.358 -9.414,-4.562 -11.391,-6.61c-1.983,-2.047 -2.972,-4.784 -2.972,-8.212c0,-3.694 0.936,-6.632 2.805,-8.814c1.871,-2.183 4.899,-3.272 9.088,-3.272c3.958,0 7.047,1.303 9.245,3.906c1.722,2.026 2.767,4.735 3.146,8.124c0.107,0.967 0.252,1.764 1.031,2.398c0.842,0.685 2.258,0.663 2.258,0.663l12.825,0c0,0 1.519,0.022 2.324,-0.643c0.966,-0.796 0.896,-1.604 0.845,-2.529c-0.362,-6.947 -2.552,-12.688 -6.561,-17.228c-4.13,-4.676 -9.712,-7.666 -16.714,-9.009l0,-12.092c0.003,-1.523 -1.242,-2.771 -2.772,-2.771l-9.346,0c-1.522,0 -2.772,1.248 -2.772,2.771l0,11.807c-7.312,1.089 -13.194,3.795 -17.616,8.156c-4.856,4.786 -7.282,10.939 -7.282,18.461c0,8.146 2.426,14.469 7.282,18.965c4.852,4.496 12.313,8.436 22.375,11.817c5.339,2.047 9.056,4.174 11.147,6.375c2.1,2.203 3.144,5.131 3.144,8.78c0,3.696 -1.096,6.616 -3.274,8.753c-2.183,2.136 -5.459,3.203 -9.815,3.203c-4.455,0 -8.072,-1.213 -10.856,-3.638c-2.231,-1.944 -3.571,-4.941 -4.012,-8.988c-0.108,-1.003 -0.13,-1.833 -0.896,-2.548c-0.809,-0.752 -2.907,-0.654 -2.907,-0.654l-12.056,0c0,0 -1.791,-0.098 -2.58,0.616c-0.688,0.622 -0.909,1.593 -0.869,2.466c0.33,8.212 2.981,14.543 7.955,18.989c5.319,4.755 12.083,7.546 20.26,8.409l0,11.485c0,1.526 1.25,2.772 2.772,2.772l9.346,0c1.527,0 2.773,-1.246 2.773,-2.772l0,-11.875c6.742,-1.188 12.2,-3.768 16.343,-7.755c4.829,-4.647 7.248,-10.847 7.248,-18.592z"/>
 </g>
</svg>